<mxfile host="app.diagrams.net" modified="2023-04-01T17:40:23.067Z" agent="Mozilla/5.0 (Windows NT 10.0; Win64; x64) AppleWebKit/537.36 (KHTML, like Gecko) Chrome/111.0.0.0 Safari/537.36" etag="A7azqIx2pC2WFk6NFD8f" version="21.1.2" type="google">
  <diagram name="Pagina-1" id="Lym-lsf34xBTletWVme-">
    <mxGraphModel grid="1" page="1" gridSize="10" guides="1" tooltips="1" connect="1" arrows="1" fold="1" pageScale="1" pageWidth="827" pageHeight="1169" background="#ffffff" math="0" shadow="0">
      <root>
        <mxCell id="0" />
        <mxCell id="1" parent="0" />
        <mxCell id="SDPUHOjMvNKguAPm8x-i-1" value="&lt;i&gt;&lt;u&gt;&lt;font color=&quot;#ff00ff&quot; face=&quot;Comic Sans MS&quot; style=&quot;font-size: 14px;&quot;&gt;Giocatore&lt;/font&gt;&lt;/u&gt;&lt;/i&gt;" style="swimlane;fontStyle=1;align=center;verticalAlign=top;childLayout=stackLayout;horizontal=1;startSize=26;horizontalStack=0;resizeParent=1;resizeParentMax=0;resizeLast=0;collapsible=1;marginBottom=0;whiteSpace=wrap;html=1;" vertex="1" parent="1">
          <mxGeometry x="30" y="120" width="220" height="398" as="geometry" />
        </mxCell>
        <mxCell id="SDPUHOjMvNKguAPm8x-i-2" value="int number" style="text;strokeColor=none;fillColor=none;align=left;verticalAlign=top;spacingLeft=4;spacingRight=4;overflow=hidden;rotatable=0;points=[[0,0.5],[1,0.5]];portConstraint=eastwest;whiteSpace=wrap;html=1;" vertex="1" parent="SDPUHOjMvNKguAPm8x-i-1">
          <mxGeometry y="26" width="220" height="26" as="geometry" />
        </mxCell>
        <mxCell id="SDPUHOjMvNKguAPm8x-i-12" value="String name" style="text;strokeColor=none;fillColor=none;align=left;verticalAlign=top;spacingLeft=4;spacingRight=4;overflow=hidden;rotatable=0;points=[[0,0.5],[1,0.5]];portConstraint=eastwest;whiteSpace=wrap;html=1;" vertex="1" parent="SDPUHOjMvNKguAPm8x-i-1">
          <mxGeometry y="52" width="220" height="26" as="geometry" />
        </mxCell>
        <mxCell id="SDPUHOjMvNKguAPm8x-i-13" value="int points" style="text;strokeColor=none;fillColor=none;align=left;verticalAlign=top;spacingLeft=4;spacingRight=4;overflow=hidden;rotatable=0;points=[[0,0.5],[1,0.5]];portConstraint=eastwest;whiteSpace=wrap;html=1;" vertex="1" parent="SDPUHOjMvNKguAPm8x-i-1">
          <mxGeometry y="78" width="220" height="26" as="geometry" />
        </mxCell>
        <mxCell id="j94k8GAFKueLytWgnJ2b-1" value="boolean chair" style="text;strokeColor=none;fillColor=none;align=left;verticalAlign=top;spacingLeft=4;spacingRight=4;overflow=hidden;rotatable=0;points=[[0,0.5],[1,0.5]];portConstraint=eastwest;whiteSpace=wrap;html=1;" vertex="1" parent="SDPUHOjMvNKguAPm8x-i-1">
          <mxGeometry y="104" width="220" height="26" as="geometry" />
        </mxCell>
        <mxCell id="SDPUHOjMvNKguAPm8x-i-14" value="PersonalCard personalCard" style="text;strokeColor=none;fillColor=none;align=left;verticalAlign=top;spacingLeft=4;spacingRight=4;overflow=hidden;rotatable=0;points=[[0,0.5],[1,0.5]];portConstraint=eastwest;whiteSpace=wrap;html=1;" vertex="1" parent="SDPUHOjMvNKguAPm8x-i-1">
          <mxGeometry y="130" width="220" height="26" as="geometry" />
        </mxCell>
        <mxCell id="SDPUHOjMvNKguAPm8x-i-15" value="Library library" style="text;strokeColor=none;fillColor=none;align=left;verticalAlign=top;spacingLeft=4;spacingRight=4;overflow=hidden;rotatable=0;points=[[0,0.5],[1,0.5]];portConstraint=eastwest;whiteSpace=wrap;html=1;" vertex="1" parent="SDPUHOjMvNKguAPm8x-i-1">
          <mxGeometry y="156" width="220" height="26" as="geometry" />
        </mxCell>
        <mxCell id="SDPUHOjMvNKguAPm8x-i-3" value="" style="line;strokeWidth=1;fillColor=none;align=left;verticalAlign=middle;spacingTop=-1;spacingLeft=3;spacingRight=3;rotatable=0;labelPosition=right;points=[];portConstraint=eastwest;strokeColor=inherit;" vertex="1" parent="SDPUHOjMvNKguAPm8x-i-1">
          <mxGeometry y="182" width="220" height="8" as="geometry" />
        </mxCell>
        <mxCell id="SDPUHOjMvNKguAPm8x-i-4" value="void Giocatore(String name)&lt;br&gt;" style="text;strokeColor=none;fillColor=none;align=left;verticalAlign=top;spacingLeft=4;spacingRight=4;overflow=hidden;rotatable=0;points=[[0,0.5],[1,0.5]];portConstraint=eastwest;whiteSpace=wrap;html=1;" vertex="1" parent="SDPUHOjMvNKguAPm8x-i-1">
          <mxGeometry y="190" width="220" height="26" as="geometry" />
        </mxCell>
        <mxCell id="SDPUHOjMvNKguAPm8x-i-44" value="int getNumber()" style="text;strokeColor=none;fillColor=none;align=left;verticalAlign=top;spacingLeft=4;spacingRight=4;overflow=hidden;rotatable=0;points=[[0,0.5],[1,0.5]];portConstraint=eastwest;whiteSpace=wrap;html=1;" vertex="1" parent="SDPUHOjMvNKguAPm8x-i-1">
          <mxGeometry y="216" width="220" height="26" as="geometry" />
        </mxCell>
        <mxCell id="SDPUHOjMvNKguAPm8x-i-46" value="String getName()" style="text;strokeColor=none;fillColor=none;align=left;verticalAlign=top;spacingLeft=4;spacingRight=4;overflow=hidden;rotatable=0;points=[[0,0.5],[1,0.5]];portConstraint=eastwest;whiteSpace=wrap;html=1;" vertex="1" parent="SDPUHOjMvNKguAPm8x-i-1">
          <mxGeometry y="242" width="220" height="26" as="geometry" />
        </mxCell>
        <mxCell id="SDPUHOjMvNKguAPm8x-i-47" value="int getPoints()" style="text;strokeColor=none;fillColor=none;align=left;verticalAlign=top;spacingLeft=4;spacingRight=4;overflow=hidden;rotatable=0;points=[[0,0.5],[1,0.5]];portConstraint=eastwest;whiteSpace=wrap;html=1;" vertex="1" parent="SDPUHOjMvNKguAPm8x-i-1">
          <mxGeometry y="268" width="220" height="26" as="geometry" />
        </mxCell>
        <mxCell id="SDPUHOjMvNKguAPm8x-i-48" value="int calculateTotalPoints()&lt;br&gt;" style="text;strokeColor=none;fillColor=none;align=left;verticalAlign=top;spacingLeft=4;spacingRight=4;overflow=hidden;rotatable=0;points=[[0,0.5],[1,0.5]];portConstraint=eastwest;whiteSpace=wrap;html=1;" vertex="1" parent="SDPUHOjMvNKguAPm8x-i-1">
          <mxGeometry y="294" width="220" height="26" as="geometry" />
        </mxCell>
        <mxCell id="SDPUHOjMvNKguAPm8x-i-49" value="void setChairTrue()" style="text;strokeColor=none;fillColor=none;align=left;verticalAlign=top;spacingLeft=4;spacingRight=4;overflow=hidden;rotatable=0;points=[[0,0.5],[1,0.5]];portConstraint=eastwest;whiteSpace=wrap;html=1;" vertex="1" parent="SDPUHOjMvNKguAPm8x-i-1">
          <mxGeometry y="320" width="220" height="26" as="geometry" />
        </mxCell>
        <mxCell id="SDPUHOjMvNKguAPm8x-i-50" value="void incrementPoints(int points)" style="text;strokeColor=none;fillColor=none;align=left;verticalAlign=top;spacingLeft=4;spacingRight=4;overflow=hidden;rotatable=0;points=[[0,0.5],[1,0.5]];portConstraint=eastwest;whiteSpace=wrap;html=1;" vertex="1" parent="SDPUHOjMvNKguAPm8x-i-1">
          <mxGeometry y="346" width="220" height="26" as="geometry" />
        </mxCell>
        <mxCell id="SDPUHOjMvNKguAPm8x-i-51" value="int play()" style="text;strokeColor=none;fillColor=none;align=left;verticalAlign=top;spacingLeft=4;spacingRight=4;overflow=hidden;rotatable=0;points=[[0,0.5],[1,0.5]];portConstraint=eastwest;whiteSpace=wrap;html=1;" vertex="1" parent="SDPUHOjMvNKguAPm8x-i-1">
          <mxGeometry y="372" width="220" height="26" as="geometry" />
        </mxCell>
        <mxCell id="SDPUHOjMvNKguAPm8x-i-5" value="&lt;font color=&quot;#ff00ff&quot; face=&quot;Comic Sans MS&quot;&gt;&lt;span style=&quot;font-size: 14px;&quot;&gt;&lt;i&gt;&lt;u&gt;Common Goal&lt;/u&gt;&lt;/i&gt;&lt;/span&gt;&lt;/font&gt;" style="swimlane;fontStyle=1;align=center;verticalAlign=top;childLayout=stackLayout;horizontal=1;startSize=26;horizontalStack=0;resizeParent=1;resizeParentMax=0;resizeLast=0;collapsible=1;marginBottom=0;whiteSpace=wrap;html=1;" vertex="1" parent="1">
          <mxGeometry x="474" y="120" width="310" height="164" as="geometry" />
        </mxCell>
        <mxCell id="SDPUHOjMvNKguAPm8x-i-6" value="int id" style="text;strokeColor=none;fillColor=none;align=left;verticalAlign=top;spacingLeft=4;spacingRight=4;overflow=hidden;rotatable=0;points=[[0,0.5],[1,0.5]];portConstraint=eastwest;whiteSpace=wrap;html=1;" vertex="1" parent="SDPUHOjMvNKguAPm8x-i-5">
          <mxGeometry y="26" width="310" height="26" as="geometry" />
        </mxCell>
        <mxCell id="SDPUHOjMvNKguAPm8x-i-16" value="String description" style="text;strokeColor=none;fillColor=none;align=left;verticalAlign=top;spacingLeft=4;spacingRight=4;overflow=hidden;rotatable=0;points=[[0,0.5],[1,0.5]];portConstraint=eastwest;whiteSpace=wrap;html=1;" vertex="1" parent="SDPUHOjMvNKguAPm8x-i-5">
          <mxGeometry y="52" width="310" height="26" as="geometry" />
        </mxCell>
        <mxCell id="SDPUHOjMvNKguAPm8x-i-60" value="int remainingCards[4]" style="text;strokeColor=none;fillColor=none;align=left;verticalAlign=top;spacingLeft=4;spacingRight=4;overflow=hidden;rotatable=0;points=[[0,0.5],[1,0.5]];portConstraint=eastwest;whiteSpace=wrap;html=1;" vertex="1" parent="SDPUHOjMvNKguAPm8x-i-5">
          <mxGeometry y="78" width="310" height="26" as="geometry" />
        </mxCell>
        <mxCell id="SDPUHOjMvNKguAPm8x-i-7" value="" style="line;strokeWidth=1;fillColor=none;align=left;verticalAlign=middle;spacingTop=-1;spacingLeft=3;spacingRight=3;rotatable=0;labelPosition=right;points=[];portConstraint=eastwest;strokeColor=inherit;" vertex="1" parent="SDPUHOjMvNKguAPm8x-i-5">
          <mxGeometry y="104" width="310" height="8" as="geometry" />
        </mxCell>
        <mxCell id="SDPUHOjMvNKguAPm8x-i-8" value="void Goal(int nplayers)" style="text;strokeColor=none;fillColor=none;align=left;verticalAlign=top;spacingLeft=4;spacingRight=4;overflow=hidden;rotatable=0;points=[[0,0.5],[1,0.5]];portConstraint=eastwest;whiteSpace=wrap;html=1;" vertex="1" parent="SDPUHOjMvNKguAPm8x-i-5">
          <mxGeometry y="112" width="310" height="26" as="geometry" />
        </mxCell>
        <mxCell id="SDPUHOjMvNKguAPm8x-i-59" value="void verifyGoal()" style="text;strokeColor=none;fillColor=none;align=left;verticalAlign=top;spacingLeft=4;spacingRight=4;overflow=hidden;rotatable=0;points=[[0,0.5],[1,0.5]];portConstraint=eastwest;whiteSpace=wrap;html=1;" vertex="1" parent="SDPUHOjMvNKguAPm8x-i-5">
          <mxGeometry y="138" width="310" height="26" as="geometry" />
        </mxCell>
        <mxCell id="SDPUHOjMvNKguAPm8x-i-18" value="&lt;font color=&quot;#ff00ff&quot; face=&quot;Comic Sans MS&quot;&gt;&lt;span style=&quot;font-size: 14px;&quot;&gt;&lt;i&gt;&lt;u&gt;Personal Card&lt;/u&gt;&lt;/i&gt;&lt;/span&gt;&lt;/font&gt;" style="swimlane;fontStyle=1;align=center;verticalAlign=top;childLayout=stackLayout;horizontal=1;startSize=26;horizontalStack=0;resizeParent=1;resizeParentMax=0;resizeLast=0;collapsible=1;marginBottom=0;whiteSpace=wrap;html=1;" vertex="1" parent="1">
          <mxGeometry x="549" y="640" width="160" height="112" as="geometry" />
        </mxCell>
        <mxCell id="SDPUHOjMvNKguAPm8x-i-22" value="int positionColors[6][5]" style="text;strokeColor=none;fillColor=none;align=left;verticalAlign=top;spacingLeft=4;spacingRight=4;overflow=hidden;rotatable=0;points=[[0,0.5],[1,0.5]];portConstraint=eastwest;whiteSpace=wrap;html=1;" vertex="1" parent="SDPUHOjMvNKguAPm8x-i-18">
          <mxGeometry y="26" width="160" height="26" as="geometry" />
        </mxCell>
        <mxCell id="SDPUHOjMvNKguAPm8x-i-20" value="" style="line;strokeWidth=1;fillColor=none;align=left;verticalAlign=middle;spacingTop=-1;spacingLeft=3;spacingRight=3;rotatable=0;labelPosition=right;points=[];portConstraint=eastwest;strokeColor=inherit;" vertex="1" parent="SDPUHOjMvNKguAPm8x-i-18">
          <mxGeometry y="52" width="160" height="8" as="geometry" />
        </mxCell>
        <mxCell id="SDPUHOjMvNKguAPm8x-i-21" value="void PersonalCard()" style="text;strokeColor=none;fillColor=none;align=left;verticalAlign=top;spacingLeft=4;spacingRight=4;overflow=hidden;rotatable=0;points=[[0,0.5],[1,0.5]];portConstraint=eastwest;whiteSpace=wrap;html=1;" vertex="1" parent="SDPUHOjMvNKguAPm8x-i-18">
          <mxGeometry y="60" width="160" height="26" as="geometry" />
        </mxCell>
        <mxCell id="SDPUHOjMvNKguAPm8x-i-62" value="int[][] getPositionColors()" style="text;strokeColor=none;fillColor=none;align=left;verticalAlign=top;spacingLeft=4;spacingRight=4;overflow=hidden;rotatable=0;points=[[0,0.5],[1,0.5]];portConstraint=eastwest;whiteSpace=wrap;html=1;" vertex="1" parent="SDPUHOjMvNKguAPm8x-i-18">
          <mxGeometry y="86" width="160" height="26" as="geometry" />
        </mxCell>
        <mxCell id="SDPUHOjMvNKguAPm8x-i-25" value="&lt;i style=&quot;border-color: var(--border-color);&quot;&gt;&lt;u style=&quot;border-color: var(--border-color);&quot;&gt;&lt;font color=&quot;#ff00ff&quot; style=&quot;border-color: var(--border-color); font-size: 14px;&quot; face=&quot;Comic Sans MS&quot;&gt;Tile&lt;/font&gt;&lt;/u&gt;&lt;/i&gt;" style="swimlane;fontStyle=1;align=center;verticalAlign=top;childLayout=stackLayout;horizontal=1;startSize=26;horizontalStack=0;resizeParent=1;resizeParentMax=0;resizeLast=0;collapsible=1;marginBottom=0;whiteSpace=wrap;html=1;" vertex="1" parent="1">
          <mxGeometry x="190" y="640" width="220" height="164" as="geometry" />
        </mxCell>
        <mxCell id="SDPUHOjMvNKguAPm8x-i-29" value="&lt;b&gt;&lt;i&gt;&lt;u&gt;&lt;font color=&quot;#0000ff&quot; style=&quot;font-size: 16px;&quot; face=&quot;Courier New&quot;&gt;ENUM&lt;/font&gt;&lt;/u&gt;&lt;/i&gt;&lt;/b&gt; color" style="text;strokeColor=none;fillColor=none;align=left;verticalAlign=top;spacingLeft=4;spacingRight=4;overflow=hidden;rotatable=0;points=[[0,0.5],[1,0.5]];portConstraint=eastwest;whiteSpace=wrap;html=1;" vertex="1" parent="SDPUHOjMvNKguAPm8x-i-25">
          <mxGeometry y="26" width="220" height="26" as="geometry" />
        </mxCell>
        <mxCell id="SDPUHOjMvNKguAPm8x-i-30" value="Position P" style="text;strokeColor=none;fillColor=none;align=left;verticalAlign=top;spacingLeft=4;spacingRight=4;overflow=hidden;rotatable=0;points=[[0,0.5],[1,0.5]];portConstraint=eastwest;whiteSpace=wrap;html=1;" vertex="1" parent="SDPUHOjMvNKguAPm8x-i-25">
          <mxGeometry y="52" width="220" height="26" as="geometry" />
        </mxCell>
        <mxCell id="SDPUHOjMvNKguAPm8x-i-27" value="" style="line;strokeWidth=1;fillColor=none;align=left;verticalAlign=middle;spacingTop=-1;spacingLeft=3;spacingRight=3;rotatable=0;labelPosition=right;points=[];portConstraint=eastwest;strokeColor=inherit;" vertex="1" parent="SDPUHOjMvNKguAPm8x-i-25">
          <mxGeometry y="78" width="220" height="8" as="geometry" />
        </mxCell>
        <mxCell id="SDPUHOjMvNKguAPm8x-i-28" value="void Tile()&lt;br&gt;" style="text;strokeColor=none;fillColor=none;align=left;verticalAlign=top;spacingLeft=4;spacingRight=4;overflow=hidden;rotatable=0;points=[[0,0.5],[1,0.5]];portConstraint=eastwest;whiteSpace=wrap;html=1;" vertex="1" parent="SDPUHOjMvNKguAPm8x-i-25">
          <mxGeometry y="86" width="220" height="26" as="geometry" />
        </mxCell>
        <mxCell id="SDPUHOjMvNKguAPm8x-i-70" value="int getColor()&lt;br&gt;" style="text;strokeColor=none;fillColor=none;align=left;verticalAlign=top;spacingLeft=4;spacingRight=4;overflow=hidden;rotatable=0;points=[[0,0.5],[1,0.5]];portConstraint=eastwest;whiteSpace=wrap;html=1;" vertex="1" parent="SDPUHOjMvNKguAPm8x-i-25">
          <mxGeometry y="112" width="220" height="26" as="geometry" />
        </mxCell>
        <mxCell id="SDPUHOjMvNKguAPm8x-i-71" value="P getPosition()" style="text;strokeColor=none;fillColor=none;align=left;verticalAlign=top;spacingLeft=4;spacingRight=4;overflow=hidden;rotatable=0;points=[[0,0.5],[1,0.5]];portConstraint=eastwest;whiteSpace=wrap;html=1;" vertex="1" parent="SDPUHOjMvNKguAPm8x-i-25">
          <mxGeometry y="138" width="220" height="26" as="geometry" />
        </mxCell>
        <mxCell id="j94k8GAFKueLytWgnJ2b-3" value="&lt;font face=&quot;Comic Sans MS&quot; color=&quot;#ff00ff&quot;&gt;&lt;span style=&quot;font-size: 14px;&quot;&gt;&lt;i&gt;&lt;u&gt;Library&lt;/u&gt;&lt;/i&gt;&lt;/span&gt;&lt;/font&gt;" style="swimlane;fontStyle=1;align=center;verticalAlign=top;childLayout=stackLayout;horizontal=1;startSize=26;horizontalStack=0;resizeParent=1;resizeParentMax=0;resizeLast=0;collapsible=1;marginBottom=0;whiteSpace=wrap;html=1;" vertex="1" parent="1">
          <mxGeometry x="280" y="870" width="310" height="112" as="geometry" />
        </mxCell>
        <mxCell id="j94k8GAFKueLytWgnJ2b-4" value="Tile personalTiles[6][5]" style="text;strokeColor=none;fillColor=none;align=left;verticalAlign=top;spacingLeft=4;spacingRight=4;overflow=hidden;rotatable=0;points=[[0,0.5],[1,0.5]];portConstraint=eastwest;whiteSpace=wrap;html=1;" vertex="1" parent="j94k8GAFKueLytWgnJ2b-3">
          <mxGeometry y="26" width="310" height="26" as="geometry" />
        </mxCell>
        <mxCell id="j94k8GAFKueLytWgnJ2b-5" value="" style="line;strokeWidth=1;fillColor=none;align=left;verticalAlign=middle;spacingTop=-1;spacingLeft=3;spacingRight=3;rotatable=0;labelPosition=right;points=[];portConstraint=eastwest;strokeColor=inherit;" vertex="1" parent="j94k8GAFKueLytWgnJ2b-3">
          <mxGeometry y="52" width="310" height="8" as="geometry" />
        </mxCell>
        <mxCell id="j94k8GAFKueLytWgnJ2b-6" value="void Library()" style="text;strokeColor=none;fillColor=none;align=left;verticalAlign=top;spacingLeft=4;spacingRight=4;overflow=hidden;rotatable=0;points=[[0,0.5],[1,0.5]];portConstraint=eastwest;whiteSpace=wrap;html=1;" vertex="1" parent="j94k8GAFKueLytWgnJ2b-3">
          <mxGeometry y="60" width="310" height="26" as="geometry" />
        </mxCell>
        <mxCell id="SDPUHOjMvNKguAPm8x-i-63" value="int[][] getPersonalTiles()" style="text;strokeColor=none;fillColor=none;align=left;verticalAlign=top;spacingLeft=4;spacingRight=4;overflow=hidden;rotatable=0;points=[[0,0.5],[1,0.5]];portConstraint=eastwest;whiteSpace=wrap;html=1;" vertex="1" parent="j94k8GAFKueLytWgnJ2b-3">
          <mxGeometry y="86" width="310" height="26" as="geometry" />
        </mxCell>
        <mxCell id="SDPUHOjMvNKguAPm8x-i-31" value="&lt;font face=&quot;Comic Sans MS&quot; color=&quot;#ff00ff&quot;&gt;&lt;span style=&quot;font-size: 14px;&quot;&gt;&lt;i&gt;&lt;u&gt;Position&lt;/u&gt;&lt;/i&gt;&lt;/span&gt;&lt;/font&gt;" style="swimlane;fontStyle=1;align=center;verticalAlign=top;childLayout=stackLayout;horizontal=1;startSize=26;horizontalStack=0;resizeParent=1;resizeParentMax=0;resizeLast=0;collapsible=1;marginBottom=0;whiteSpace=wrap;html=1;" vertex="1" parent="1">
          <mxGeometry x="26" y="870" width="220" height="164" as="geometry" />
        </mxCell>
        <mxCell id="SDPUHOjMvNKguAPm8x-i-32" value="int x" style="text;strokeColor=none;fillColor=none;align=left;verticalAlign=top;spacingLeft=4;spacingRight=4;overflow=hidden;rotatable=0;points=[[0,0.5],[1,0.5]];portConstraint=eastwest;whiteSpace=wrap;html=1;" vertex="1" parent="SDPUHOjMvNKguAPm8x-i-31">
          <mxGeometry y="26" width="220" height="26" as="geometry" />
        </mxCell>
        <mxCell id="SDPUHOjMvNKguAPm8x-i-35" value="int y" style="text;strokeColor=none;fillColor=none;align=left;verticalAlign=top;spacingLeft=4;spacingRight=4;overflow=hidden;rotatable=0;points=[[0,0.5],[1,0.5]];portConstraint=eastwest;whiteSpace=wrap;html=1;" vertex="1" parent="SDPUHOjMvNKguAPm8x-i-31">
          <mxGeometry y="52" width="220" height="26" as="geometry" />
        </mxCell>
        <mxCell id="SDPUHOjMvNKguAPm8x-i-33" value="" style="line;strokeWidth=1;fillColor=none;align=left;verticalAlign=middle;spacingTop=-1;spacingLeft=3;spacingRight=3;rotatable=0;labelPosition=right;points=[];portConstraint=eastwest;strokeColor=inherit;" vertex="1" parent="SDPUHOjMvNKguAPm8x-i-31">
          <mxGeometry y="78" width="220" height="8" as="geometry" />
        </mxCell>
        <mxCell id="SDPUHOjMvNKguAPm8x-i-34" value="void Position()" style="text;strokeColor=none;fillColor=none;align=left;verticalAlign=top;spacingLeft=4;spacingRight=4;overflow=hidden;rotatable=0;points=[[0,0.5],[1,0.5]];portConstraint=eastwest;whiteSpace=wrap;html=1;" vertex="1" parent="SDPUHOjMvNKguAPm8x-i-31">
          <mxGeometry y="86" width="220" height="26" as="geometry" />
        </mxCell>
        <mxCell id="SDPUHOjMvNKguAPm8x-i-65" value="int getX()" style="text;strokeColor=none;fillColor=none;align=left;verticalAlign=top;spacingLeft=4;spacingRight=4;overflow=hidden;rotatable=0;points=[[0,0.5],[1,0.5]];portConstraint=eastwest;whiteSpace=wrap;html=1;" vertex="1" parent="SDPUHOjMvNKguAPm8x-i-31">
          <mxGeometry y="112" width="220" height="26" as="geometry" />
        </mxCell>
        <mxCell id="SDPUHOjMvNKguAPm8x-i-66" value="int getY()" style="text;strokeColor=none;fillColor=none;align=left;verticalAlign=top;spacingLeft=4;spacingRight=4;overflow=hidden;rotatable=0;points=[[0,0.5],[1,0.5]];portConstraint=eastwest;whiteSpace=wrap;html=1;" vertex="1" parent="SDPUHOjMvNKguAPm8x-i-31">
          <mxGeometry y="138" width="220" height="26" as="geometry" />
        </mxCell>
        <mxCell id="SDPUHOjMvNKguAPm8x-i-36" value="&lt;font face=&quot;Comic Sans MS&quot; color=&quot;#ff00ff&quot;&gt;&lt;span style=&quot;font-size: 14px;&quot;&gt;&lt;i&gt;&lt;u&gt;Map&lt;/u&gt;&lt;/i&gt;&lt;/span&gt;&lt;/font&gt;" style="swimlane;fontStyle=1;align=center;verticalAlign=top;childLayout=stackLayout;horizontal=1;startSize=26;horizontalStack=0;resizeParent=1;resizeParentMax=0;resizeLast=0;collapsible=1;marginBottom=0;whiteSpace=wrap;html=1;" vertex="1" parent="1">
          <mxGeometry x="628" y="870" width="156" height="164" as="geometry" />
        </mxCell>
        <mxCell id="SDPUHOjMvNKguAPm8x-i-37" value="Tile map[9][9]" style="text;strokeColor=none;fillColor=none;align=left;verticalAlign=top;spacingLeft=4;spacingRight=4;overflow=hidden;rotatable=0;points=[[0,0.5],[1,0.5]];portConstraint=eastwest;whiteSpace=wrap;html=1;" vertex="1" parent="SDPUHOjMvNKguAPm8x-i-36">
          <mxGeometry y="26" width="156" height="26" as="geometry" />
        </mxCell>
        <mxCell id="SDPUHOjMvNKguAPm8x-i-38" value="" style="line;strokeWidth=1;fillColor=none;align=left;verticalAlign=middle;spacingTop=-1;spacingLeft=3;spacingRight=3;rotatable=0;labelPosition=right;points=[];portConstraint=eastwest;strokeColor=inherit;" vertex="1" parent="SDPUHOjMvNKguAPm8x-i-36">
          <mxGeometry y="52" width="156" height="8" as="geometry" />
        </mxCell>
        <mxCell id="SDPUHOjMvNKguAPm8x-i-39" value="void verifyMap()" style="text;strokeColor=none;fillColor=none;align=left;verticalAlign=top;spacingLeft=4;spacingRight=4;overflow=hidden;rotatable=0;points=[[0,0.5],[1,0.5]];portConstraint=eastwest;whiteSpace=wrap;html=1;" vertex="1" parent="SDPUHOjMvNKguAPm8x-i-36">
          <mxGeometry y="60" width="156" height="26" as="geometry" />
        </mxCell>
        <mxCell id="SDPUHOjMvNKguAPm8x-i-54" value="void Map()" style="text;strokeColor=none;fillColor=none;align=left;verticalAlign=top;spacingLeft=4;spacingRight=4;overflow=hidden;rotatable=0;points=[[0,0.5],[1,0.5]];portConstraint=eastwest;whiteSpace=wrap;html=1;" vertex="1" parent="SDPUHOjMvNKguAPm8x-i-36">
          <mxGeometry y="86" width="156" height="26" as="geometry" />
        </mxCell>
        <mxCell id="SDPUHOjMvNKguAPm8x-i-55" value="void fill()" style="text;strokeColor=none;fillColor=none;align=left;verticalAlign=top;spacingLeft=4;spacingRight=4;overflow=hidden;rotatable=0;points=[[0,0.5],[1,0.5]];portConstraint=eastwest;whiteSpace=wrap;html=1;" vertex="1" parent="SDPUHOjMvNKguAPm8x-i-36">
          <mxGeometry y="112" width="156" height="26" as="geometry" />
        </mxCell>
        <mxCell id="SDPUHOjMvNKguAPm8x-i-68" value="&lt;span style=&quot;color: rgb(0, 0, 0); font-family: Helvetica; font-size: 12px; font-style: normal; font-variant-ligatures: normal; font-variant-caps: normal; font-weight: 400; letter-spacing: normal; orphans: 2; text-align: left; text-indent: 0px; text-transform: none; widows: 2; word-spacing: 0px; -webkit-text-stroke-width: 0px; background-color: rgb(251, 251, 251); text-decoration-thickness: initial; text-decoration-style: initial; text-decoration-color: initial; float: none; display: inline !important;&quot;&gt;Tile[][] getMap()&lt;/span&gt;&lt;br&gt;" style="text;strokeColor=none;fillColor=none;align=left;verticalAlign=top;spacingLeft=4;spacingRight=4;overflow=hidden;rotatable=0;points=[[0,0.5],[1,0.5]];portConstraint=eastwest;whiteSpace=wrap;html=1;" vertex="1" parent="SDPUHOjMvNKguAPm8x-i-36">
          <mxGeometry y="138" width="156" height="26" as="geometry" />
        </mxCell>
        <mxCell id="DMbDk3YFuspJmu81PwHm-1" value="&lt;font color=&quot;#ff00ff&quot; face=&quot;Comic Sans MS&quot;&gt;&lt;span style=&quot;font-size: 14px;&quot;&gt;&lt;i&gt;&lt;u&gt;Single Goal&lt;/u&gt;&lt;/i&gt;&lt;/span&gt;&lt;/font&gt;" style="swimlane;fontStyle=1;align=center;verticalAlign=top;childLayout=stackLayout;horizontal=1;startSize=26;horizontalStack=0;resizeParent=1;resizeParentMax=0;resizeLast=0;collapsible=1;marginBottom=0;whiteSpace=wrap;html=1;" vertex="1" parent="1">
          <mxGeometry x="330" y="340" width="140" height="164" as="geometry" />
        </mxCell>
        <mxCell id="DMbDk3YFuspJmu81PwHm-2" value="int id" style="text;strokeColor=none;fillColor=none;align=left;verticalAlign=top;spacingLeft=4;spacingRight=4;overflow=hidden;rotatable=0;points=[[0,0.5],[1,0.5]];portConstraint=eastwest;whiteSpace=wrap;html=1;" vertex="1" parent="DMbDk3YFuspJmu81PwHm-1">
          <mxGeometry y="26" width="140" height="26" as="geometry" />
        </mxCell>
        <mxCell id="DMbDk3YFuspJmu81PwHm-3" value="String description" style="text;strokeColor=none;fillColor=none;align=left;verticalAlign=top;spacingLeft=4;spacingRight=4;overflow=hidden;rotatable=0;points=[[0,0.5],[1,0.5]];portConstraint=eastwest;whiteSpace=wrap;html=1;" vertex="1" parent="DMbDk3YFuspJmu81PwHm-1">
          <mxGeometry y="52" width="140" height="26" as="geometry" />
        </mxCell>
        <mxCell id="DMbDk3YFuspJmu81PwHm-4" value="int remainingCards[4]" style="text;strokeColor=none;fillColor=none;align=left;verticalAlign=top;spacingLeft=4;spacingRight=4;overflow=hidden;rotatable=0;points=[[0,0.5],[1,0.5]];portConstraint=eastwest;whiteSpace=wrap;html=1;" vertex="1" parent="DMbDk3YFuspJmu81PwHm-1">
          <mxGeometry y="78" width="140" height="26" as="geometry" />
        </mxCell>
        <mxCell id="DMbDk3YFuspJmu81PwHm-5" value="" style="line;strokeWidth=1;fillColor=none;align=left;verticalAlign=middle;spacingTop=-1;spacingLeft=3;spacingRight=3;rotatable=0;labelPosition=right;points=[];portConstraint=eastwest;strokeColor=inherit;" vertex="1" parent="DMbDk3YFuspJmu81PwHm-1">
          <mxGeometry y="104" width="140" height="8" as="geometry" />
        </mxCell>
        <mxCell id="DMbDk3YFuspJmu81PwHm-6" value="void Goal(int nplayers)" style="text;strokeColor=none;fillColor=none;align=left;verticalAlign=top;spacingLeft=4;spacingRight=4;overflow=hidden;rotatable=0;points=[[0,0.5],[1,0.5]];portConstraint=eastwest;whiteSpace=wrap;html=1;" vertex="1" parent="DMbDk3YFuspJmu81PwHm-1">
          <mxGeometry y="112" width="140" height="26" as="geometry" />
        </mxCell>
        <mxCell id="DMbDk3YFuspJmu81PwHm-7" value="void verifyGoal()" style="text;strokeColor=none;fillColor=none;align=left;verticalAlign=top;spacingLeft=4;spacingRight=4;overflow=hidden;rotatable=0;points=[[0,0.5],[1,0.5]];portConstraint=eastwest;whiteSpace=wrap;html=1;" vertex="1" parent="DMbDk3YFuspJmu81PwHm-1">
          <mxGeometry y="138" width="140" height="26" as="geometry" />
        </mxCell>
        <mxCell id="DMbDk3YFuspJmu81PwHm-9" value="" style="shape=flexArrow;endArrow=classic;html=1;rounded=0;width=8;endSize=5.048571428571429;fillColor=default;gradientColor=#6600CC;gradientDirection=south;" edge="1" parent="1">
          <mxGeometry width="50" height="50" relative="1" as="geometry">
            <mxPoint x="600" y="330" as="sourcePoint" />
            <mxPoint x="600" y="290" as="targetPoint" />
            <Array as="points">
              <mxPoint x="600" y="330" />
            </Array>
          </mxGeometry>
        </mxCell>
        <mxCell id="DMbDk3YFuspJmu81PwHm-12" style="edgeStyle=orthogonalEdgeStyle;rounded=0;orthogonalLoop=1;jettySize=auto;html=1;entryX=0;entryY=0.5;entryDx=0;entryDy=0;" edge="1" parent="1" source="DMbDk3YFuspJmu81PwHm-11" target="SDPUHOjMvNKguAPm8x-i-29">
          <mxGeometry relative="1" as="geometry">
            <Array as="points">
              <mxPoint x="86" y="679" />
            </Array>
          </mxGeometry>
        </mxCell>
        <mxCell id="DMbDk3YFuspJmu81PwHm-11" value="&lt;b&gt;&lt;i&gt;&lt;u&gt;&lt;font color=&quot;#0000ff&quot; style=&quot;font-size: 16px;&quot; face=&quot;Courier New&quot;&gt;ENUM&lt;/font&gt;&lt;/u&gt;&lt;/i&gt;&lt;/b&gt;&amp;nbsp;Colors {&lt;br&gt;pink, blue, light blue, green, yellow, white&lt;br&gt;}" style="rounded=0;whiteSpace=wrap;html=1;align=left;" vertex="1" parent="1">
          <mxGeometry x="26" y="710" width="120" height="80" as="geometry" />
        </mxCell>
        <mxCell id="h1H1eTU5e_wSvXtNcCdn-1" value="&lt;b&gt;&lt;i&gt;&lt;font color=&quot;#ffff33&quot; face=&quot;Verdana&quot; style=&quot;font-size: 40px;&quot;&gt;UML&lt;/font&gt;&lt;/i&gt;&lt;/b&gt;" style="text;html=1;strokeColor=none;fillColor=#CC6600;align=center;verticalAlign=middle;whiteSpace=wrap;rounded=1;gradientColor=#6600CC;gradientDirection=radial;glass=0;shadow=1;" vertex="1" parent="1">
          <mxGeometry x="320" y="30" width="130" height="50" as="geometry" />
        </mxCell>
        <mxCell id="h1H1eTU5e_wSvXtNcCdn-3" value="&lt;font color=&quot;#ff00ff&quot; face=&quot;Comic Sans MS&quot;&gt;&lt;span style=&quot;font-size: 14px;&quot;&gt;&lt;i&gt;&lt;u&gt;Single Goal&lt;/u&gt;&lt;/i&gt;&lt;/span&gt;&lt;/font&gt;" style="swimlane;fontStyle=1;align=center;verticalAlign=top;childLayout=stackLayout;horizontal=1;startSize=26;horizontalStack=0;resizeParent=1;resizeParentMax=0;resizeLast=0;collapsible=1;marginBottom=0;whiteSpace=wrap;html=1;" vertex="1" parent="1">
          <mxGeometry x="499" y="340" width="140" height="164" as="geometry" />
        </mxCell>
        <mxCell id="h1H1eTU5e_wSvXtNcCdn-4" value="int id" style="text;strokeColor=none;fillColor=none;align=left;verticalAlign=top;spacingLeft=4;spacingRight=4;overflow=hidden;rotatable=0;points=[[0,0.5],[1,0.5]];portConstraint=eastwest;whiteSpace=wrap;html=1;" vertex="1" parent="h1H1eTU5e_wSvXtNcCdn-3">
          <mxGeometry y="26" width="140" height="26" as="geometry" />
        </mxCell>
        <mxCell id="h1H1eTU5e_wSvXtNcCdn-5" value="String description" style="text;strokeColor=none;fillColor=none;align=left;verticalAlign=top;spacingLeft=4;spacingRight=4;overflow=hidden;rotatable=0;points=[[0,0.5],[1,0.5]];portConstraint=eastwest;whiteSpace=wrap;html=1;" vertex="1" parent="h1H1eTU5e_wSvXtNcCdn-3">
          <mxGeometry y="52" width="140" height="26" as="geometry" />
        </mxCell>
        <mxCell id="h1H1eTU5e_wSvXtNcCdn-6" value="int remainingCards[4]" style="text;strokeColor=none;fillColor=none;align=left;verticalAlign=top;spacingLeft=4;spacingRight=4;overflow=hidden;rotatable=0;points=[[0,0.5],[1,0.5]];portConstraint=eastwest;whiteSpace=wrap;html=1;" vertex="1" parent="h1H1eTU5e_wSvXtNcCdn-3">
          <mxGeometry y="78" width="140" height="26" as="geometry" />
        </mxCell>
        <mxCell id="h1H1eTU5e_wSvXtNcCdn-7" value="" style="line;strokeWidth=1;fillColor=none;align=left;verticalAlign=middle;spacingTop=-1;spacingLeft=3;spacingRight=3;rotatable=0;labelPosition=right;points=[];portConstraint=eastwest;strokeColor=inherit;" vertex="1" parent="h1H1eTU5e_wSvXtNcCdn-3">
          <mxGeometry y="104" width="140" height="8" as="geometry" />
        </mxCell>
        <mxCell id="h1H1eTU5e_wSvXtNcCdn-8" value="void Goal(int nplayers)" style="text;strokeColor=none;fillColor=none;align=left;verticalAlign=top;spacingLeft=4;spacingRight=4;overflow=hidden;rotatable=0;points=[[0,0.5],[1,0.5]];portConstraint=eastwest;whiteSpace=wrap;html=1;" vertex="1" parent="h1H1eTU5e_wSvXtNcCdn-3">
          <mxGeometry y="112" width="140" height="26" as="geometry" />
        </mxCell>
        <mxCell id="h1H1eTU5e_wSvXtNcCdn-9" value="void verifyGoal()" style="text;strokeColor=none;fillColor=none;align=left;verticalAlign=top;spacingLeft=4;spacingRight=4;overflow=hidden;rotatable=0;points=[[0,0.5],[1,0.5]];portConstraint=eastwest;whiteSpace=wrap;html=1;" vertex="1" parent="h1H1eTU5e_wSvXtNcCdn-3">
          <mxGeometry y="138" width="140" height="26" as="geometry" />
        </mxCell>
        <mxCell id="h1H1eTU5e_wSvXtNcCdn-10" value="&lt;font color=&quot;#ff00ff&quot; face=&quot;Comic Sans MS&quot;&gt;&lt;span style=&quot;font-size: 14px;&quot;&gt;&lt;i&gt;&lt;u&gt;Single Goal&lt;/u&gt;&lt;/i&gt;&lt;/span&gt;&lt;/font&gt;" style="swimlane;fontStyle=1;align=center;verticalAlign=top;childLayout=stackLayout;horizontal=1;startSize=26;horizontalStack=0;resizeParent=1;resizeParentMax=0;resizeLast=0;collapsible=1;marginBottom=0;whiteSpace=wrap;html=1;" vertex="1" parent="1">
          <mxGeometry x="666" y="340" width="140" height="164" as="geometry" />
        </mxCell>
        <mxCell id="h1H1eTU5e_wSvXtNcCdn-11" value="int id" style="text;strokeColor=none;fillColor=none;align=left;verticalAlign=top;spacingLeft=4;spacingRight=4;overflow=hidden;rotatable=0;points=[[0,0.5],[1,0.5]];portConstraint=eastwest;whiteSpace=wrap;html=1;" vertex="1" parent="h1H1eTU5e_wSvXtNcCdn-10">
          <mxGeometry y="26" width="140" height="26" as="geometry" />
        </mxCell>
        <mxCell id="h1H1eTU5e_wSvXtNcCdn-12" value="String description" style="text;strokeColor=none;fillColor=none;align=left;verticalAlign=top;spacingLeft=4;spacingRight=4;overflow=hidden;rotatable=0;points=[[0,0.5],[1,0.5]];portConstraint=eastwest;whiteSpace=wrap;html=1;" vertex="1" parent="h1H1eTU5e_wSvXtNcCdn-10">
          <mxGeometry y="52" width="140" height="26" as="geometry" />
        </mxCell>
        <mxCell id="h1H1eTU5e_wSvXtNcCdn-13" value="int remainingCards[4]" style="text;strokeColor=none;fillColor=none;align=left;verticalAlign=top;spacingLeft=4;spacingRight=4;overflow=hidden;rotatable=0;points=[[0,0.5],[1,0.5]];portConstraint=eastwest;whiteSpace=wrap;html=1;" vertex="1" parent="h1H1eTU5e_wSvXtNcCdn-10">
          <mxGeometry y="78" width="140" height="26" as="geometry" />
        </mxCell>
        <mxCell id="h1H1eTU5e_wSvXtNcCdn-14" value="" style="line;strokeWidth=1;fillColor=none;align=left;verticalAlign=middle;spacingTop=-1;spacingLeft=3;spacingRight=3;rotatable=0;labelPosition=right;points=[];portConstraint=eastwest;strokeColor=inherit;" vertex="1" parent="h1H1eTU5e_wSvXtNcCdn-10">
          <mxGeometry y="104" width="140" height="8" as="geometry" />
        </mxCell>
        <mxCell id="h1H1eTU5e_wSvXtNcCdn-15" value="void Goal(int nplayers)" style="text;strokeColor=none;fillColor=none;align=left;verticalAlign=top;spacingLeft=4;spacingRight=4;overflow=hidden;rotatable=0;points=[[0,0.5],[1,0.5]];portConstraint=eastwest;whiteSpace=wrap;html=1;" vertex="1" parent="h1H1eTU5e_wSvXtNcCdn-10">
          <mxGeometry y="112" width="140" height="26" as="geometry" />
        </mxCell>
        <mxCell id="h1H1eTU5e_wSvXtNcCdn-16" value="void verifyGoal()" style="text;strokeColor=none;fillColor=none;align=left;verticalAlign=top;spacingLeft=4;spacingRight=4;overflow=hidden;rotatable=0;points=[[0,0.5],[1,0.5]];portConstraint=eastwest;whiteSpace=wrap;html=1;" vertex="1" parent="h1H1eTU5e_wSvXtNcCdn-10">
          <mxGeometry y="138" width="140" height="26" as="geometry" />
        </mxCell>
        <mxCell id="h1H1eTU5e_wSvXtNcCdn-18" value="" style="shape=curlyBracket;whiteSpace=wrap;html=1;rounded=1;labelPosition=left;verticalLabelPosition=middle;align=right;verticalAlign=middle;rotation=-90;strokeWidth=4;" vertex="1" parent="1">
          <mxGeometry x="557.5" y="285.5" width="20" height="487" as="geometry" />
        </mxCell>
        <mxCell id="h1H1eTU5e_wSvXtNcCdn-19" value="&lt;b&gt;&lt;i&gt;&lt;u&gt;&lt;font color=&quot;#ff8000&quot; style=&quot;font-size: 30px;&quot; face=&quot;Times New Roman&quot;&gt;Tot. 12 Card&lt;/font&gt;&lt;/u&gt;&lt;/i&gt;&lt;/b&gt;" style="text;html=1;strokeColor=none;fillColor=default;align=center;verticalAlign=middle;whiteSpace=wrap;rounded=0;glass=0;" vertex="1" parent="1">
          <mxGeometry x="474.75" y="550" width="188.5" height="30" as="geometry" />
        </mxCell>
      </root>
    </mxGraphModel>
  </diagram>
</mxfile>
